<?xml version="1.0" encoding="UTF-8" standalone="no"?>
<svg
   id="icon"
   viewBox="0 0 32 32"
   version="1.1"
   sodipodi:docname="cart.svg"
   inkscape:version="1.3.2 (091e20ef0f, 2023-11-25)"
   xmlns:inkscape="http://www.inkscape.org/namespaces/inkscape"
   xmlns:sodipodi="http://sodipodi.sourceforge.net/DTD/sodipodi-0.dtd"
   xmlns="http://www.w3.org/2000/svg"
   xmlns:svg="http://www.w3.org/2000/svg">
  <sodipodi:namedview
     id="namedview1353"
     pagecolor="#ffffff"
     bordercolor="#666666"
     borderopacity="1.0"
     inkscape:pageshadow="2"
     inkscape:pageopacity="0.0"
     inkscape:pagecheckerboard="0"
     showgrid="false"
     inkscape:zoom="11.234375"
     inkscape:cx="14.242003"
     inkscape:cy="24.255911"
     inkscape:window-width="1392"
     inkscape:window-height="749"
     inkscape:window-x="2014"
     inkscape:window-y="255"
     inkscape:window-maximized="0"
     inkscape:current-layer="icon"
     inkscape:showpageshadow="2"
     inkscape:deskcolor="#d1d1d1"
     showguides="false" />
  <defs
     id="defs1341">
    <style
       id="style1339">.cls-1{fill:none;}</style>
  </defs>
  <title
     id="title1343">shopping--cart</title>
  <circle
     cx="10"
     cy="28"
     r="2"
     id="circle1345"
     style="fill:#ffffff;fill-opacity:1" />
  <circle
     cx="24"
     cy="28"
     r="2"
     id="circle1347"
     style="fill:#ffffff;fill-opacity:1" />
  <path
     d="M28,7H5.82L5,2.8A1,1,0,0,0,4,2H0V4H3.18L7,23.2A1,1,0,0,0,8,24H26V22H8.82L8,18H26a1,1,0,0,0,1-.78l2-9A1,1,0,0,0,28,7Zm-2.8,9H7.62L6.22,9H26.75Z"
     id="path1349"
     style="fill:#ffffff;fill-opacity:1" />
  <rect
     id="_Transparent_Rectangle_"
     data-name="&lt;Transparent Rectangle&gt;"
     class="cls-1"
     width="32"
     height="32" />
</svg>
