<?xml version="1.0" encoding="UTF-8" standalone="no"?>
<svg
   id="icon"
   width="32"
   height="32"
   viewBox="0 0 32 32"
   version="1.1"
   sodipodi:docname="gift.svg"
   inkscape:version="1.3.2 (091e20ef0f, 2023-11-25)"
   xmlns:inkscape="http://www.inkscape.org/namespaces/inkscape"
   xmlns:sodipodi="http://sodipodi.sourceforge.net/DTD/sodipodi-0.dtd"
   xmlns="http://www.w3.org/2000/svg"
   xmlns:svg="http://www.w3.org/2000/svg">
  <sodipodi:namedview
     id="namedview1211"
     pagecolor="#ffffff"
     bordercolor="#666666"
     borderopacity="1.0"
     inkscape:pageshadow="2"
     inkscape:pageopacity="0.0"
     inkscape:pagecheckerboard="0"
     showgrid="false"
     inkscape:zoom="15.887805"
     inkscape:cx="15.609456"
     inkscape:cy="17.780933"
     inkscape:window-width="1392"
     inkscape:window-height="749"
     inkscape:window-x="2059"
     inkscape:window-y="67"
     inkscape:window-maximized="0"
     inkscape:current-layer="icon"
     inkscape:showpageshadow="2"
     inkscape:deskcolor="#d1d1d1" />
  <defs
     id="defs1203">
    <style
       id="style1201">.cls-1{fill:none;}</style>
  </defs>
  <title
     id="title1205">gift</title>
  <path
     d="M26,10H23.2383A4.4867,4.4867,0,0,0,16,4.7065,4.4873,4.4873,0,0,0,8.7617,10H6a2.0025,2.0025,0,0,0-2,2v4a2.0025,2.0025,0,0,0,2,2V28a2.0025,2.0025,0,0,0,2,2H24a2.0025,2.0025,0,0,0,2-2V18a2.0025,2.0025,0,0,0,2-2V12A2.0025,2.0025,0,0,0,26,10ZM17,7.5A2.5,2.5,0,1,1,19.5,10H17ZM12.5,5A2.503,2.503,0,0,1,15,7.5V10H12.5a2.5,2.5,0,0,1,0-5ZM6,12h9v4H6Zm2,6h7V28H8ZM24.0012,28H17V18h7ZM17,16V12h9l.0012,4Z"
     id="path1207"
     style="fill:#ffffff;fill-opacity:1" />
  <rect
     id="_Transparent_Rectangle_"
     data-name="&lt;Transparent Rectangle&gt;"
     class="cls-1"
     width="32"
     height="32" />
</svg>
