<?xml version="1.0" encoding="UTF-8" standalone="no"?>
<svg
   id="icon"
   viewBox="0 0 32 32"
   version="1.1"
   sodipodi:docname="mobile-car.svg"
   inkscape:version="1.1.2 (0a00cf5339, 2022-02-04)"
   xmlns:inkscape="http://www.inkscape.org/namespaces/inkscape"
   xmlns:sodipodi="http://sodipodi.sourceforge.net/DTD/sodipodi-0.dtd"
   xmlns="http://www.w3.org/2000/svg"
   xmlns:svg="http://www.w3.org/2000/svg"
   xmlns:rdf="http://www.w3.org/1999/02/22-rdf-syntax-ns#"
   xmlns:cc="http://creativecommons.org/ns#"
   xmlns:dc="http://purl.org/dc/elements/1.1/">
  <sodipodi:namedview
     id="namedview747"
     pagecolor="#ffffff"
     bordercolor="#666666"
     borderopacity="1.0"
     inkscape:pageshadow="2"
     inkscape:pageopacity="0.0"
     inkscape:pagecheckerboard="0"
     showgrid="false"
     inkscape:zoom="11.313709"
     inkscape:cx="3.0052038"
     inkscape:cy="14.097941"
     inkscape:window-width="1678"
     inkscape:window-height="936"
     inkscape:window-x="1954"
     inkscape:window-y="69"
     inkscape:window-maximized="0"
     inkscape:current-layer="icon" />
  <defs
     id="defs735">
    <style
       id="style733">.cls-1{fill:none;}</style>
  </defs>
  <title
     id="title737">shopping--cart</title>
  <g
     id="circle739"
     transform="matrix(1.0262403,0,0,1.0262403,0,-3.6421807)">
    <path
       style="color:#000000;fill:#0069f5;stroke-width:1.07143;-inkscape-stroke:none"
       d="m 12.933593,27.397976 a 2.0663114,2.0663114 0 0 1 -2.066311,2.066311 2.0663114,2.0663114 0 0 1 -2.0663114,-2.066311 2.0663114,2.0663114 0 0 1 2.0663114,-2.066311 2.0663114,2.0663114 0 0 1 2.066311,2.066311 z"
       id="path1595" />
    <path
       style="color:#000000;fill:#0069f5;-inkscape-stroke:none"
       d="m 10.867188,24.796875 c -1.430713,0 -2.6015627,1.17085 -2.601563,2.601562 C 8.2656253,28.82915 9.436475,30 10.867188,30 c 1.430712,0 2.601562,-1.17085 2.601562,-2.601563 0,-1.430712 -1.17085,-2.601562 -2.601562,-2.601562 z m 0,1.070312 c 0.851669,10e-7 1.531249,0.679581 1.53125,1.53125 -1e-6,0.85167 -0.679581,1.529297 -1.53125,1.529297 -0.85167,0 -1.5312503,-0.677627 -1.5312505,-1.529297 2e-7,-0.851669 0.6795805,-1.53125 1.5312505,-1.53125 z"
       id="path1592" />
  </g>
  <g
     id="circle741"
     transform="matrix(1.0262403,0,0,1.0262403,-2,-3.6421807)"
     style="stroke:#ffffff;stroke-width:0;stroke-miterlimit:4;stroke-dasharray:none;stroke-opacity:1">
    <path
       style="color:#000000;fill:#0069f5;stroke:#ffffff;stroke-width:0;stroke-miterlimit:4;stroke-dasharray:none;stroke-opacity:1"
       d="m 27.39777,27.397976 a 2.0663114,2.0663114 0 0 1 -2.066311,2.066311 2.0663114,2.0663114 0 0 1 -2.066311,-2.066311 2.0663114,2.0663114 0 0 1 2.066311,-2.066311 2.0663114,2.0663114 0 0 1 2.066311,2.066311 z"
       id="path1589" />
    <path
       style="color:#000000;fill:#0069f5;stroke:#ffffff;stroke-width:0;stroke-miterlimit:4;stroke-dasharray:none;stroke-opacity:1"
       d="m 25.332031,24.796875 c -1.430712,0 -2.603515,1.17085 -2.603515,2.601562 0,1.430713 1.172803,2.601563 2.603515,2.601563 1.430713,0 2.601562,-1.17085 2.601563,-2.601563 -1e-6,-1.430712 -1.17085,-2.601562 -2.601563,-2.601562 z m 0,1.070312 c 0.85167,10e-7 1.529297,0.679581 1.529297,1.53125 0,0.85167 -0.677627,1.529297 -1.529297,1.529297 -0.851669,0 -1.53125,-0.677627 -1.53125,-1.529297 0,-0.851669 0.679581,-1.531249 1.53125,-1.53125 z"
       id="path1586" />
  </g>
  <g
     id="path743"
     transform="matrix(1.0262403,0,0,1.0262403,0,1.500326)"
     style="stroke-width:0.974431;stroke-miterlimit:4;stroke-dasharray:none">
    <path
       style="color:#000000;fill:#0069f5;stroke-width:0.974431;stroke-miterlimit:4;stroke-dasharray:none"
       d="M 29.464076,5.701703 H 6.5486816 L 5.7014938,1.3624488 C 5.6018216,0.87363882 5.1671052,0.52586566 4.6683381,0.53592415 H 0.53571498 V 2.6022358 H 3.8211503 L 6.2768555,17.693359 c 1.8676757,-1.162109 0,0 2.5241054,-0.626943 H 27.397764 c 0.492465,0.01204 0.92493,-0.325286 1.033157,-0.805862 L 30.497232,6.9621529 C 30.645467,6.305811 30.136746,5.6851715 29.464076,5.701703 Z M 26.57124,15.000105 H 8.4083616 L 6.9619438,7.7680139 H 28.172631 Z"
       id="path1583"
       sodipodi:nodetypes="cccccccccccccccccc" />
    <path
       id="path3829"
       style="color:#000000;fill:#0069f5;stroke-width:0.974431;stroke-miterlimit:4;stroke-dasharray:none"
       d="m 0,0 v 3.1386719 h 3.3808594 l 0.482666,2.4257813 0.482666,2.4257812 0.482666,2.4257816 0.482666,2.425781 0.4826661,2.425781 0.482666,2.425781 3.1801757,-0.0918 H 27.384766 c 0.744535,0.0182 1.404735,-0.496095 1.568359,-1.222656 v -0.002 L 31.019531,7.0800781 C 31.130654,6.5880578 30.991071,6.1027493 30.697266,5.7441406 30.403461,5.3855319 29.955432,5.1536229 29.451172,5.1660156 H 18.220703 6.9902344 L 6.2265625,1.2578125 v -0.00195 C 6.0759028,0.51699496 5.412115,-0.01520392 4.6582031,0 Z m 1.0722656,1.0722656 h 3.6015625 0.00586 c 0.24362,-0.00491 0.4474086,0.1577267 0.4960931,0.3964844 L 6.1074219,6.2382812 H 29.470703 l 0.0059,-0.00195 c 0.336819,-0.00828 0.572271,0.2787801 0.498047,0.6074219 v 0.00195 l -2.066406,9.2968749 c -0.05283,0.234589 -0.257654,0.394548 -0.498047,0.388672 H 27.404297 8.1445312 C 8.8009609,17.066416 6.7418835,16.413693 4.2617188,2.0664062 H 1.0722656 Z M 6.3085938,7.2324219 7.96875,15.535156 h 19.033203 l 0.0918,-0.419922 1.746094,-7.8828121 z m 1.3066406,1.0722656 h 9.9453126 9.945312 L 26.142578,14.464844 H 8.8476562 Z"
       sodipodi:nodetypes="ccccccccccccccsccccccccccccccccccccccccccccccccccc" />
  </g>
  <metadata
     id="metadata952">
    <rdf:RDF>
      <cc:Work
         rdf:about="">
        <dc:title>shopping--cart</dc:title>
      </cc:Work>
    </rdf:RDF>
  </metadata>
  <path
     id="rect2436"
     style="fill:#ffffff;stroke:#0069f5;stroke-width:0;stroke-linecap:round;stroke-linejoin:round;paint-order:stroke fill markers"
     d="m 30.364285,1.9172361 -23.9743357,0.8719034 0.7436233,3.4395079 1.5133034,0.294643 -1.5193166,0.06013 0.6875009,3.4395076 19.3622677,4.074897 0.268586,-1.048289 0.268586,-1.048288 0.268586,-1.048289 0.268587,-1.048289 0.268587,-1.0482876 0.268585,-1.048288 0.134294,-0.525147 0.134293,-0.523142 0.268586,-1.048288 h -0.01006 l 0.178424,-0.6494182 0.290636,-1.0482883 0.144314,-0.5251465 0.14632,-0.5231419 z" />
</svg>
