<?xml version="1.0" encoding="UTF-8" standalone="no"?>
<svg
   id="icon"
   viewBox="0 0 32 32"
   version="1.1"
   sodipodi:docname="mobile-car.svg"
   inkscape:version="1.1.2 (0a00cf5339, 2022-02-04)"
   xmlns:inkscape="http://www.inkscape.org/namespaces/inkscape"
   xmlns:sodipodi="http://sodipodi.sourceforge.net/DTD/sodipodi-0.dtd"
   xmlns="http://www.w3.org/2000/svg"
   xmlns:svg="http://www.w3.org/2000/svg"
   xmlns:rdf="http://www.w3.org/1999/02/22-rdf-syntax-ns#"
   xmlns:cc="http://creativecommons.org/ns#"
   xmlns:dc="http://purl.org/dc/elements/1.1/">
  <sodipodi:namedview
     id="namedview747"
     pagecolor="#ffffff"
     bordercolor="#666666"
     borderopacity="1.0"
     inkscape:pageshadow="2"
     inkscape:pageopacity="0.0"
     inkscape:pagecheckerboard="0"
     showgrid="false"
     inkscape:zoom="16"
     inkscape:cx="5.09375"
     inkscape:cy="10.25"
     inkscape:window-width="1913"
     inkscape:window-height="741"
     inkscape:window-x="7"
     inkscape:window-y="302"
     inkscape:window-maximized="0"
     inkscape:current-layer="icon" />
  <defs
     id="defs735">
    <style
       id="style733">.cls-1{fill:none;}</style>
  </defs>
  <title
     id="title737">shopping--cart</title>
  <g
     id="circle739"
     transform="translate(0,1.000125)">
    <path
       style="color:#000000;fill:#0069f5;stroke-width:1.07143;-inkscape-stroke:none"
       d="m 12.933593,27.397976 a 2.0663114,2.0663114 0 0 1 -2.066311,2.066311 2.0663114,2.0663114 0 0 1 -2.0663114,-2.066311 2.0663114,2.0663114 0 0 1 2.0663114,-2.066311 2.0663114,2.0663114 0 0 1 2.066311,2.066311 z"
       id="path1595" />
    <path
       style="color:#000000;fill:#0069f5;-inkscape-stroke:none"
       d="m 10.867188,24.796875 c -1.430713,0 -2.6015627,1.17085 -2.601563,2.601562 C 8.2656253,28.82915 9.436475,30 10.867188,30 c 1.430712,0 2.601562,-1.17085 2.601562,-2.601563 0,-1.430712 -1.17085,-2.601562 -2.601562,-2.601562 z m 0,1.070312 c 0.851669,10e-7 1.531249,0.679581 1.53125,1.53125 -1e-6,0.85167 -0.679581,1.529297 -1.53125,1.529297 -0.85167,0 -1.5312503,-0.677627 -1.5312505,-1.529297 2e-7,-0.851669 0.6795805,-1.53125 1.5312505,-1.53125 z"
       id="path1592" />
  </g>
  <g
     id="circle741"
     transform="translate(0,1.000125)">
    <path
       style="color:#000000;fill:#0069f5;stroke-width:1.07143;-inkscape-stroke:none"
       d="m 27.39777,27.397976 a 2.0663114,2.0663114 0 0 1 -2.066311,2.066311 2.0663114,2.0663114 0 0 1 -2.066311,-2.066311 2.0663114,2.0663114 0 0 1 2.066311,-2.066311 2.0663114,2.0663114 0 0 1 2.066311,2.066311 z"
       id="path1589" />
    <path
       style="color:#000000;fill:#0069f5;-inkscape-stroke:none"
       d="m 25.332031,24.796875 c -1.430712,0 -2.603515,1.17085 -2.603515,2.601562 0,1.430713 1.172803,2.601563 2.603515,2.601563 1.430713,0 2.601562,-1.17085 2.601563,-2.601563 -1e-6,-1.430712 -1.17085,-2.601562 -2.601563,-2.601562 z m 0,1.070312 c 0.85167,10e-7 1.529297,0.679581 1.529297,1.53125 0,0.85167 -0.677627,1.529297 -1.529297,1.529297 -0.851669,0 -1.53125,-0.677627 -1.53125,-1.529297 0,-0.851669 0.679581,-1.531249 1.53125,-1.53125 z"
       id="path1586" />
  </g>
  <g
     id="path743">
    <path
       style="color:#000000;fill:#0069f5;stroke-width:1.07143;-inkscape-stroke:none"
       d="M 29.464076,5.701703 H 6.5486816 L 5.7014938,1.3624488 A 1.0331557,1.0331557 0 0 0 4.6683381,0.53592415 H 0.53571498 V 2.6022358 H 3.8211503 l 3.946655,19.8365902 a 1.0331557,1.0331557 0 0 0 1.0331556,0.826525 H 27.397764 V 21.199038 H 9.6481493 L 8.8009609,17.066416 H 27.397764 a 1.0331557,1.0331557 0 0 0 1.033157,-0.805862 L 30.497232,6.9621529 A 1.0331557,1.0331557 0 0 0 29.464076,5.701703 Z M 26.57124,15.000105 H 8.4083616 L 6.9619438,7.7680139 H 28.172631 Z"
       id="path1583" />
    <path
       style="color:#000000;fill:#0069f5;-inkscape-stroke:none"
       d="M 0,0 V 3.1386719 H 3.3808594 L 7.2421875,22.544922 C 7.392847,23.283783 8.058588,23.815985 8.8125,23.800781 H 27.933594 V 20.664062 H 10.085938 l -0.6289067,-3.0625 H 27.384766 c 0.744535,0.0182 1.404735,-0.496095 1.568359,-1.222656 v -0.002 L 31.019531,7.0800781 C 31.130654,6.5880578 30.990694,6.1033458 30.696889,5.7447371 30.403084,5.3861284 29.955432,5.1536229 29.451172,5.1660156 H 18.220703 6.9902344 L 6.2265625,1.2578125 v -0.00195 C 6.0759028,0.51699809 5.412115,-0.01520392 4.6582031,0 Z m 1.0722656,1.0722656 h 3.6015625 0.00586 C 4.9233087,1.0673526 5.1270967,1.2299923 5.1757812,1.46875 L 6.1074219,6.2382812 H 29.470703 l 0.0059,-0.00195 c 0.336818,-0.00828 0.572271,0.2787801 0.498047,0.6074219 v 0.00195 l -2.066406,9.2968749 c -0.05283,0.234589 -0.257654,0.394548 -0.498047,0.388672 h -0.0059 -19.2597657 l 1.0664062,5.203125 H 26.861328 v 0.996094 H 8.7949219 8.7910156 c -0.2436212,0.0049 -0.4493623,-0.15968 -0.4980468,-0.398438 L 4.2617187,2.0664063 H 1.0722656 Z M 6.3085937,7.2324219 7.96875,15.535156 h 19.033203 l 0.0918,-0.419922 1.746094,-7.8828121 z m 1.3066407,1.0722656 h 9.9453126 9.945312 L 26.142578,14.464844 H 8.8476563 Z"
       id="path1580"
       sodipodi:nodetypes="cccccccccccccsccccccccccccccccccccccccccccccccccccccccc" />
  </g>
  <metadata
     id="metadata952">
    <rdf:RDF>
      <cc:Work
         rdf:about="">
        <dc:title>shopping--cart</dc:title>
      </cc:Work>
    </rdf:RDF>
  </metadata>
  <path
     id="rect2436"
     style="fill:#ffffff;stroke:#0069f5;stroke-width:0;stroke-linecap:round;stroke-linejoin:round;paint-order:stroke fill markers"
     d="M 6.9450808,4.9526665 28.575468,4.1025961 28.313884,5.1241043 28.183093,5.6348585 28.052301,6.1456126 27.790717,7.1671208 27.529133,8.188629 27.26755,9.2101373 27.005966,10.231646 26.744383,11.253154 26.482799,12.274662 7.6152344,8.3046875 Z"
     sodipodi:nodetypes="ccccccccccccc" />
  <path
     id="rect2436-7"
     style="fill:#ffffff;stroke:#0069f5;stroke-width:0;stroke-linecap:round;stroke-linejoin:round;paint-order:stroke fill markers"
     d="M 6.2265625,1.2558625 29.588388,0.4057921 29.305865,1.4273003 29.164604,1.9380545 29.023343,2.4488086 28.74082,3.4703168 28.458297,4.491825 28.175775,5.513333 27.893252,6.534842 27.610731,7.55635 27.328208,8.577858 6.9503596,4.607883 Z"
     sodipodi:nodetypes="ccccccccccccc" />
</svg>
