<?xml version="1.0" encoding="UTF-8" standalone="no"?>
<svg
   id="icon"
   viewBox="0 0 32 32"
   version="1.1"
   sodipodi:docname="mobile-car.svg"
   inkscape:version="1.1.2 (0a00cf5339, 2022-02-04)"
   xmlns:inkscape="http://www.inkscape.org/namespaces/inkscape"
   xmlns:sodipodi="http://sodipodi.sourceforge.net/DTD/sodipodi-0.dtd"
   xmlns="http://www.w3.org/2000/svg"
   xmlns:svg="http://www.w3.org/2000/svg"
   xmlns:rdf="http://www.w3.org/1999/02/22-rdf-syntax-ns#"
   xmlns:cc="http://creativecommons.org/ns#"
   xmlns:dc="http://purl.org/dc/elements/1.1/">
  <sodipodi:namedview
     id="namedview747"
     pagecolor="#ffffff"
     bordercolor="#666666"
     borderopacity="1.0"
     inkscape:pageshadow="2"
     inkscape:pageopacity="0.0"
     inkscape:pagecheckerboard="0"
     showgrid="false"
     inkscape:zoom="8"
     inkscape:cx="2"
     inkscape:cy="25.125"
     inkscape:window-width="1920"
     inkscape:window-height="1011"
     inkscape:window-x="0"
     inkscape:window-y="32"
     inkscape:window-maximized="1"
     inkscape:current-layer="icon" />
  <defs
     id="defs735">
    <style
       id="style733">.cls-1{fill:none;}</style>
  </defs>
  <title
     id="title737">shopping--cart</title>
  <circle
     cx="12.068617"
     cy="23.912481"
     r="2.0686166"
     id="circle739"
     style="fill:#0069f5;fill-opacity:1;stroke-width:1.03431" />
  <circle
     cx="22.068617"
     cy="23.912481"
     r="2.0686166"
     id="circle741"
     style="fill:#0069f5;fill-opacity:1;stroke-width:1.03431" />
  <g
     id="path743"
     transform="matrix(1.0726241,0,0,1.0726241,-1.6089362,0.391382)"
     style="stroke-width:0;stroke-miterlimit:4;stroke-dasharray:none">
    <path
       style="color:#000000;fill:#0069f5;stroke-width:0;stroke-miterlimit:4;stroke-dasharray:none"
       d="M 28.999797,6.8215884 H 7.6121007 L 6.8213923,2.7716188 C 6.7283649,2.3153963 6.3226297,1.9908081 5.8571139,2.000196 H 2 V 3.928753 H 5.0664055 C 5.2983447,4.4344849 5.4921641,5.0858722 5.6603643,5.842255 5.8285645,6.5986379 5.9711455,7.4600163 6.1006077,8.3857305 6.23007,9.3114446 6.3464136,10.301495 6.462139,11.31522 c 0.1157255,1.013726 0.2308328,2.051128 0.3578225,3.071546 0.1269897,1.020418 0.2658618,2.023851 0.4291168,2.969642 0,0 1.0161003,0.917356 2.4651494,0.07224 H 27.07124 c 0.459633,0.01123 0.863267,-0.3036 0.964279,-0.752137 L 29.964075,7.998008 C 30.102428,7.3854227 29.627622,6.8061595 28.999797,6.8215884 Z m -2.69998,8.6785056 H 9.3478019 L 7.997812,8.750145 h 19.796637 z"
       id="path1547"
       sodipodi:nodetypes="cccccccssssccccccccccc" />
    <path
       style="color:#000000;fill:#0069f5;stroke-width:0;stroke-miterlimit:4;stroke-dasharray:none"
       d="m 1.5,1.5 v 2.9296875 h 3.15625 l 0.9008789,4.5278321 0.9008789,4.5278324 0.3955353,1.935528 0.3955352,1.935528 c 0.1726269,0.699732 -0.038407,0.568328 3.0770937,0.571326 h 16.732422 c 0.694898,0.01698 1.312128,-0.462502 1.464843,-1.140625 v -0.002 l 1.929688,-8.6777341 h -0.002 C 30.658601,7.1889849 29.929567,6.2991334 28.988281,6.3222656 H 8.0234375 L 7.3125,2.6738281 7.3105469,2.671875 C 7.1699312,1.9822716 6.5513069,1.4858097 5.8476562,1.5 Z m 1,1 h 3.3613281 0.00586 C 6.0935188,2.49544 6.2835102,2.6479702 6.3300787,2.8691406 l 0.8710938,4.453125 h 21.8046875 0.0059 c 0.314363,-0.00773 0.534119,0.2596738 0.464843,0.5664063 l -1.929687,8.6777341 c -0.04931,0.21895 -0.238524,0.368765 -0.462891,0.363281 l -0.0059,-0.002 H 9.1015625 c 0,0 -0.1640625,-0.927687 -3.625,-13.4979995 H 2.5 Z M 7.3886719,8.25 8.9375,16 H 26.701172 L 26.787109,15.607422 28.417969,8.25 Z m 1.21875,1 H 27.171875 L 25.898437,15 H 9.7578125 Z"
       id="path1698"
       sodipodi:nodetypes="ccccccccccccccccccccccccccccccccccccccccccccc" />
  </g>
  <metadata
     id="metadata1295">
    <rdf:RDF>
      <cc:Work
         rdf:about="">
        <dc:title>shopping--cart</dc:title>
      </cc:Work>
    </rdf:RDF>
  </metadata>
  <path
     id="rect5066"
     style="fill:#ffffff;stroke:#0069f5;stroke-width:0;stroke-linecap:round;stroke-linejoin:round;paint-order:stroke fill markers"
     d="M 6.6179745,5.3193506 28.523626,5.6940186 26.170353,16.480744 H 8.8575291 Z"
     sodipodi:nodetypes="ccccc" />
</svg>
