<?xml version="1.0" encoding="UTF-8" standalone="no"?>
<svg
   id="icon"
   viewBox="0 0 32 32"
   version="1.1"
   sodipodi:docname="store.svg"
   inkscape:version="1.3.2 (091e20ef0f, 2023-11-25)"
   xmlns:inkscape="http://www.inkscape.org/namespaces/inkscape"
   xmlns:sodipodi="http://sodipodi.sourceforge.net/DTD/sodipodi-0.dtd"
   xmlns="http://www.w3.org/2000/svg"
   xmlns:svg="http://www.w3.org/2000/svg">
  <sodipodi:namedview
     id="namedview1"
     pagecolor="#ffffff"
     bordercolor="#000000"
     borderopacity="0.25"
     inkscape:showpageshadow="2"
     inkscape:pageopacity="0.0"
     inkscape:pagecheckerboard="0"
     inkscape:deskcolor="#d1d1d1"
     inkscape:zoom="26.40625"
     inkscape:cx="15.981065"
     inkscape:cy="18.272189"
     inkscape:window-width="1920"
     inkscape:window-height="1043"
     inkscape:window-x="1920"
     inkscape:window-y="0"
     inkscape:window-maximized="1"
     inkscape:current-layer="icon" />
  <defs
     id="defs1">
    <style
       id="style1">.cls-1{fill:none;}</style>
  </defs>
  <title
     id="title1">shop</title>
  <path
     d="M30,10.68l-2-6A1,1,0,0,0,27,4H5a1,1,0,0,0-1,.68l-2,6A1.19,1.19,0,0,0,2,11v6a1,1,0,0,0,1,1H4V28H6V18h6V28H28V18h1a1,1,0,0,0,1-1V11A1.19,1.19,0,0,0,30,10.68ZM26,26H14V18H26Zm2-10H24V12H22v4H17V12H15v4H10V12H8v4H4V11.16L5.72,6H26.28L28,11.16Z"
     transform="translate(0)"
     id="path1"
     style="stroke:none;stroke-opacity:1;fill:#ffffff;fill-opacity:1" />
  <rect
     id="_Transparent_Rectangle_"
     data-name="&lt;Transparent Rectangle&gt;"
     class="cls-1"
     width="32"
     height="32" />
</svg>
